<svg width="71" height="96" fill="none" xmlns="http://www.w3.org/2000/svg"><path d="M46.558 62.603H24.343a1.2 1.2 0 000 2.4h22.215a1.2 1.2 0 000-2.4zm0 5.387H24.343a1.2 1.2 0 000 2.4h22.215a1.2 1.2 0 000-2.4zm0 5.385H24.343a1.2 1.2 0 000 2.4h22.215a1.2 1.2 0 000-2.4zM13.507 63.366a6.593 6.593 0 00-6.585 6.586 6.594 6.594 0 006.585 6.586 6.594 6.594 0 006.587-6.586 6.593 6.593 0 00-6.587-6.586zm0 10.772a4.191 4.191 0 01-4.185-4.186 4.19 4.19 0 014.185-4.186 4.191 4.191 0 014.187 4.186 4.191 4.191 0 01-4.187 4.186zm43.887-10.772a6.594 6.594 0 00-6.587 6.586 6.594 6.594 0 006.587 6.586 6.593 6.593 0 006.585-6.586 6.592 6.592 0 00-6.585-6.586zm0 10.772a4.191 4.191 0 01-4.187-4.186 4.191 4.191 0 014.187-4.186 4.19 4.19 0 014.185 4.186 4.191 4.191 0 01-4.185 4.186z" fill="#E1E1EA"/><path d="M0 21.674v60.93a1.2 1.2 0 001.2 1.2h3.646v6.334A5.868 5.868 0 0010.708 96a5.868 5.868 0 005.862-5.862v-6.334h37.762v6.334A5.868 5.868 0 0060.194 96a5.868 5.868 0 005.862-5.862v-6.334h3.646a1.2 1.2 0 001.2-1.2v-60.93c0-5.137-4.18-9.316-9.317-9.316h-1.583c-.409-2.966-2.934-5.264-6.008-5.264-3.076 0-5.6 2.3-6.01 5.264H23.056c-.41-2.966-2.934-5.264-6.01-5.264-3.076 0-5.6 2.3-6.008 5.264H9.317C4.178 12.356 0 16.536 0 21.674zm68.5 34.272H36.65V29.382H68.5v26.564zm-34.25 0H2.4V29.382h31.85v26.564zM14.17 90.138a3.466 3.466 0 01-3.462 3.462 3.466 3.466 0 01-3.462-3.462v-6.334h6.925l-.001 6.334zm49.486 0a3.466 3.466 0 01-3.462 3.462 3.466 3.466 0 01-3.462-3.462v-6.334h6.926l-.002 6.334zM2.4 81.404V58.346h66.102v23.058H2.4zm51.593-71.91a3.693 3.693 0 013.59 2.862h-7.182a3.693 3.693 0 013.592-2.863zm-36.947 0a3.695 3.695 0 013.592 2.862h-7.182a3.693 3.693 0 013.59-2.863zm-7.73 5.262h52.27a6.925 6.925 0 016.916 6.917v5.309H2.4v-5.309a6.924 6.924 0 016.917-6.917zM18.23 4.058V1.2a1.2 1.2 0 00-2.4 0v2.858a1.2 1.2 0 002.4 0z" fill="#E1E1EA"/><path d="M22.54 7.261c.307 0 .614-.117.848-.351l2.02-2.021a1.199 1.199 0 10-1.696-1.697l-2.02 2.02a1.199 1.199 0 00.848 2.05zM11.416 7.01a1.199 1.199 0 00.848-2.048l-2.02-2.022a1.199 1.199 0 10-1.698 1.697l2.021 2.02c.234.235.541.352.849.352zm43.759-2.952V1.2a1.2 1.2 0 00-2.4 0v2.858a1.2 1.2 0 002.4 0zm4.31 3.203c.308 0 .615-.117.849-.351l2.02-2.021a1.199 1.199 0 10-1.696-1.697l-2.021 2.02a1.199 1.199 0 00.848 2.05zM48.361 7.01a1.199 1.199 0 00.848-2.048l-2.02-2.022a1.199 1.199 0 10-1.697 1.697l2.02 2.02c.236.235.542.352.849.352z" fill="#E1E1EA"/></svg>