<svg width="110" height="110" fill="none" xmlns="http://www.w3.org/2000/svg"><path d="M40.752 82.5c-4.291 0-8.328-1.466-11.533-4.159-3.206 2.693-7.242 4.159-11.533 4.159C7.934 82.5 0 74.79 0 65.312c0-5.142 2.377-9.995 6.424-13.247a14.918 14.918 0 01-1.102-5.659c0-6.06 3.638-11.514 9.206-14.027a15.047 15.047 0 01-.335-3.16c0-8.53 7.138-15.47 15.913-15.47 8.774 0 15.911 6.94 15.911 15.47a15.06 15.06 0 01-.532 3.98c4.68 2.786 7.63 7.82 7.63 13.207 0 1.962-.37 3.86-1.102 5.66a17.366 17.366 0 014.51 5.47 1.72 1.72 0 01-3.046 1.592 13.979 13.979 0 00-4.572-5.088 1.719 1.719 0 01-.562-2.222 11.556 11.556 0 001.335-5.412c0-4.634-2.685-8.779-7.008-10.816a1.719 1.719 0 01-.871-2.173 11.63 11.63 0 00.781-4.199c0-6.634-5.596-12.031-12.474-12.031-6.88 0-12.476 5.397-12.476 12.031 0 1.245.198 2.475.59 3.656a1.719 1.719 0 01-1.085 2.17c-5.01 1.681-8.376 6.248-8.376 11.362 0 1.898.45 3.719 1.336 5.412a1.719 1.719 0 01-.561 2.222c-3.818 2.576-6.096 6.79-6.096 11.272 0 7.582 6.391 13.75 14.248 13.75 3.93 0 7.592-1.514 10.31-4.265a1.719 1.719 0 012.445 0c2.719 2.75 6.38 4.265 10.31 4.265 5.409 0 10.285-2.897 12.726-7.56a1.719 1.719 0 013.046 1.594c-3.037 5.8-9.08 9.404-15.771 9.404zm67.529 27.5H1.719a1.72 1.72 0 010-3.438H108.28a1.719 1.719 0 110 3.438z" fill="#E1E1EA"/><path d="M29.219 110a1.72 1.72 0 01-1.719-1.719V42.969a1.719 1.719 0 013.438 0v65.312a1.72 1.72 0 01-1.72 1.719z" fill="#E1E1EA"/><path d="M29.219 63.594a1.72 1.72 0 01-1.32-.619l-8.594-10.312a1.719 1.719 0 012.64-2.201l7.274 8.728 7.273-8.728a1.719 1.719 0 012.641 2.201l-8.594 10.313a1.72 1.72 0 01-1.32.618z" fill="#E1E1EA"/><path d="M29.219 73.262a1.72 1.72 0 01-1.285-.577l-8.594-9.668a1.719 1.719 0 012.57-2.284l7.309 8.223 7.31-8.223a1.719 1.719 0 112.568 2.284l-8.593 9.668a1.72 1.72 0 01-1.285.577zM92.314 82.5c-4.291 0-8.327-1.466-11.533-4.159C77.576 81.034 73.54 82.5 69.25 82.5c-9.752 0-17.686-7.71-17.686-17.188 0-5.143 2.376-9.995 6.423-13.248a14.926 14.926 0 01-1.101-5.658c0-6.06 3.639-11.514 9.205-14.028a15.07 15.07 0 01-.334-3.16c0-8.529 7.138-15.468 15.912-15.468 8.774 0 15.912 6.939 15.912 15.468 0 1.353-.179 2.686-.533 3.98 4.68 2.786 7.63 7.82 7.63 13.208 0 1.963-.369 3.86-1.101 5.658C107.624 55.317 110 60.17 110 65.312c0 9.478-7.934 17.188-17.686 17.188zM80.78 74.287c.46 0 .9.183 1.223.51 2.718 2.75 6.38 4.265 10.31 4.265 7.857 0 14.249-6.168 14.249-13.75 0-4.482-2.279-8.697-6.096-11.273a1.719 1.719 0 01-.561-2.222 11.557 11.557 0 001.334-5.411c0-4.635-2.685-8.78-7.008-10.817a1.719 1.719 0 01-.87-2.174c.518-1.343.781-2.755.781-4.197 0-6.634-5.596-12.031-12.474-12.031-6.879 0-12.475 5.397-12.475 12.031 0 1.245.198 2.475.588 3.656a1.719 1.719 0 01-1.085 2.17c-5.009 1.68-8.374 6.247-8.374 11.362 0 1.9.449 3.72 1.334 5.411a1.719 1.719 0 01-.561 2.222C57.279 56.615 55 60.829 55 65.312c0 7.582 6.392 13.75 14.249 13.75 3.93 0 7.592-1.514 10.31-4.265a1.72 1.72 0 011.222-.51z" fill="#E1E1EA"/><path d="M80.781 110a1.72 1.72 0 01-1.718-1.719V42.969a1.719 1.719 0 013.437 0v65.312A1.72 1.72 0 0180.781 110z" fill="#E1E1EA"/><path d="M80.781 63.594c-.51 0-.994-.227-1.32-.619l-8.594-10.312a1.719 1.719 0 112.64-2.201l7.274 8.728 7.274-8.728a1.718 1.718 0 112.64 2.201l-8.593 10.313a1.72 1.72 0 01-1.32.618z" fill="#E1E1EA"/><path d="M80.781 73.262c-.49 0-.958-.21-1.284-.577l-8.594-9.668a1.718 1.718 0 112.57-2.284l7.308 8.223 7.31-8.223a1.719 1.719 0 112.569 2.284l-8.594 9.668a1.72 1.72 0 01-1.285.577zM70.358 22.627c-.299 0-.6-.077-.875-.24-.333-.198-.68-.381-1.03-.546a1.719 1.719 0 01-.873-2.174 11.63 11.63 0 00.781-4.198c0-6.634-5.596-12.031-12.474-12.031-6.88 0-12.476 5.397-12.476 12.03 0 1.245.198 2.475.59 3.656.297.9-.188 1.87-1.086 2.17a12.8 12.8 0 00-1.314.525 1.719 1.719 0 01-1.454-3.114c.053-.026.108-.05.162-.075a15.037 15.037 0 01-.335-3.161C39.974 6.939 47.113 0 55.887 0 64.661 0 71.8 6.94 71.8 15.469c0 1.352-.179 2.685-.533 3.98a1.719 1.719 0 01-.908 3.178zM55 110a1.72 1.72 0 01-1.719-1.719V73.906a1.719 1.719 0 013.438 0v34.375A1.72 1.72 0 0155 110z" fill="#E1E1EA"/></svg>