<svg width="100" height="100" fill="none" xmlns="http://www.w3.org/2000/svg"><path d="M98.75 85.625h-4.375v-58.75h4.375a1.248 1.248 0 001.235-1.44L96.235 1.06A1.25 1.25 0 0095 0H5a1.25 1.25 0 00-1.235 1.06L.015 25.435a1.25 1.25 0 001.235 1.44h4.375v58.75H1.25c-.69 0-1.25.56-1.25 1.25V98.75c0 .69.56 1.25 1.25 1.25h97.5c.69 0 1.25-.56 1.25-1.25V86.875c0-.69-.56-1.25-1.25-1.25zM6.072 2.5h87.856l3.365 21.875H2.707L6.072 2.5zm2.053 24.375h83.75v58.75H62.031V60.937c0-.69-.56-1.25-1.25-1.25H39.22c-.69 0-1.25.56-1.25 1.25v24.688H8.125v-58.75zm51.406 58.75H40.47V62.187h19.06v23.438zM97.5 97.5h-95v-9.375h95V97.5z" fill="#E1E1EA"/><path d="M22.038 35.625a5.569 5.569 0 00-5.563 5.563v10.166c0 .69.56 1.25 1.25 1.25h8.626c.69 0 1.25-.56 1.25-1.25V41.188a5.569 5.569 0 00-5.563-5.563zm3.063 14.479h-6.126v-8.916a3.067 3.067 0 013.063-3.063 3.067 3.067 0 013.063 3.063v8.916zm19.891 2.5c.69 0 1.25-.56 1.25-1.25V41.188a5.569 5.569 0 00-5.563-5.563 5.569 5.569 0 00-5.562 5.563v10.166c0 .69.56 1.25 1.25 1.25h8.625zm-7.375-11.416a3.067 3.067 0 013.062-3.063 3.067 3.067 0 013.063 3.063v8.916h-6.125v-8.916zm17.391 11.416h8.625c.69 0 1.25-.56 1.25-1.25V41.188a5.569 5.569 0 00-5.562-5.563 5.57 5.57 0 00-5.563 5.563v10.166c0 .69.56 1.25 1.25 1.25zm1.25-11.416a3.067 3.067 0 013.063-3.063 3.067 3.067 0 013.062 3.063v8.916h-6.125v-8.916zM73.65 52.604h8.625c.69 0 1.25-.56 1.25-1.25V41.188a5.569 5.569 0 00-5.563-5.563 5.569 5.569 0 00-5.563 5.563v10.166c0 .69.56 1.25 1.25 1.25zm1.25-11.416a3.067 3.067 0 013.062-3.063 3.067 3.067 0 013.063 3.063v8.916h-6.126v-8.916zM22.038 59.687a5.57 5.57 0 00-5.563 5.563v10.166c0 .691.56 1.25 1.25 1.25h8.626c.69 0 1.25-.559 1.25-1.25V65.25a5.57 5.57 0 00-5.563-5.563zm3.063 14.48h-6.126V65.25a3.067 3.067 0 013.063-3.063 3.067 3.067 0 013.063 3.063v8.916zm48.549 2.499h8.625c.69 0 1.25-.559 1.25-1.25V65.25a5.57 5.57 0 00-5.563-5.563 5.57 5.57 0 00-5.563 5.563v10.166c0 .691.56 1.25 1.25 1.25zM74.9 65.25a3.067 3.067 0 013.062-3.063 3.067 3.067 0 013.063 3.063v8.916h-6.126V65.25zM16.097 11.709c2.29 0 4.352-1.482 5.131-3.689a1.251 1.251 0 00-.762-1.595 1.254 1.254 0 00-1.595.762c-.427 1.21-1.542 2.022-2.774 2.022s-2.347-.812-2.774-2.022a1.254 1.254 0 00-1.595-.762 1.25 1.25 0 00-.762 1.595c.779 2.207 2.84 3.689 5.13 3.689zm16.951 0c2.291 0 4.353-1.483 5.131-3.689a1.25 1.25 0 10-2.357-.833c-.427 1.21-1.541 2.022-2.774 2.022-1.232 0-2.347-.812-2.774-2.022a1.254 1.254 0 00-1.595-.762 1.25 1.25 0 00-.762 1.595c.779 2.207 2.841 3.689 5.131 3.689zm16.952 0c2.29 0 4.352-1.482 5.131-3.689a1.251 1.251 0 00-.762-1.595 1.254 1.254 0 00-1.595.762C52.347 8.397 51.232 9.21 50 9.21s-2.347-.812-2.774-2.022a1.254 1.254 0 00-1.595-.762 1.25 1.25 0 00-.762 1.595c.779 2.207 2.841 3.689 5.131 3.689zm16.952 0c2.29 0 4.352-1.482 5.131-3.689a1.251 1.251 0 00-.762-1.595 1.254 1.254 0 00-1.595.762c-.427 1.21-1.542 2.022-2.774 2.022-1.233 0-2.347-.812-2.774-2.022a1.25 1.25 0 10-2.357.833c.778 2.206 2.84 3.689 5.131 3.689zm16.951 0c2.29 0 4.353-1.482 5.131-3.689a1.251 1.251 0 00-.762-1.595 1.254 1.254 0 00-1.595.762c-.427 1.21-1.541 2.022-2.774 2.022-1.232 0-2.347-.812-2.774-2.022a1.251 1.251 0 00-2.357.833c.779 2.207 2.841 3.689 5.131 3.689zm-70.81 9.216c2.442 0 4.644-1.553 5.479-3.863a1.25 1.25 0 10-2.351-.85 3.345 3.345 0 01-3.128 2.213 3.344 3.344 0 01-3.127-2.213 1.25 1.25 0 10-2.351.85 5.85 5.85 0 005.478 3.863zm18.454 0a5.85 5.85 0 005.478-3.863 1.25 1.25 0 10-2.351-.85 3.344 3.344 0 01-3.127 2.213 3.345 3.345 0 01-3.128-2.213 1.25 1.25 0 10-2.351.85 5.85 5.85 0 005.479 3.863zm18.453 0a5.85 5.85 0 005.478-3.863 1.25 1.25 0 10-2.35-.85A3.344 3.344 0 0150 18.425a3.344 3.344 0 01-3.127-2.213 1.25 1.25 0 00-2.351.85A5.85 5.85 0 0050 20.925zm21.58-4.713a3.344 3.344 0 01-3.126 2.213 3.344 3.344 0 01-3.128-2.213 1.25 1.25 0 00-2.351.85 5.85 5.85 0 005.479 3.863 5.85 5.85 0 005.478-3.863 1.25 1.25 0 00-2.351-.85zm12.2 0a1.25 1.25 0 10-2.351.85 5.85 5.85 0 005.478 3.863 5.85 5.85 0 005.478-3.863 1.25 1.25 0 10-2.35-.85 3.345 3.345 0 01-3.128 2.213 3.344 3.344 0 01-3.128-2.213z" fill="#E1E1EA"/></svg>