<svg width="92" height="83" fill="none" xmlns="http://www.w3.org/2000/svg"><path d="M64.111 49.105a2.56 2.56 0 002.556-2.555 2.56 2.56 0 00-2.556-2.556 2.562 2.562 0 00-2.558 2.556 2.562 2.562 0 002.558 2.555z" fill="#E1E1EA"/><path d="M86.963 10.571l-80.053.003a3.67 3.67 0 01-3.667-3.656 3.672 3.672 0 013.667-3.67h82.695a1.625 1.625 0 000-3.248H6.91C3.101 0 0 3.101 0 6.913V78.26a4.27 4.27 0 004.262 4.265h82.701a4.273 4.273 0 004.265-4.265V14.836a4.273 4.273 0 00-4.265-4.265zm1.019 44.927H54.23V37.602h33.75v17.896zm0-21.143H55.25a4.271 4.271 0 00-4.266 4.266v15.857a4.27 4.27 0 004.266 4.266h32.732v20.535H3.243V12.943l1.362.482a6.88 6.88 0 002.305.395h27.3v-.003h53.772v20.538z" fill="#E1E1EA"/></svg>