<?xml version="1.0" encoding="utf-8"?><svg viewBox="0 0 64 74" xmlns="http://www.w3.org/2000/svg" xmlns:xlink="http://www.w3.org/1999/xlink"><style>:root>svg{display:none}:root>svg:target{display:block}</style><svg fill="none" viewBox="0 0 34 15" id="icon-arrow-next" xmlns="http://www.w3.org/2000/svg"><path d="M26.6 1L33 7.4m0 0l-6.4 6.4M33 7.4H1" stroke="currentColor" stroke-width="2" stroke-linecap="round" stroke-linejoin="round"/></svg><svg fill="none" viewBox="0 0 34 15" id="icon-arrow-prev" xmlns="http://www.w3.org/2000/svg"><path d="M7.4 1L1 7.4m0 0l6.4 6.4M1 7.4h32" stroke="currentColor" stroke-width="2" stroke-linecap="round" stroke-linejoin="round"/></svg><svg fill="none" viewBox="0 0 14 6" id="icon-caret-select" xmlns="http://www.w3.org/2000/svg"><path d="M7 6L13.062.75H.938L7 6z" fill="#0184FF"/></svg><svg fill="none" viewBox="0 0 20 20" id="icon-check-blue" xmlns="http://www.w3.org/2000/svg"><path d="M16 6l-8.25 8L4 9.91" stroke="#0184FF" stroke-width="2" stroke-linecap="round" stroke-linejoin="round"/></svg><svg fill="none" viewBox="0 0 64 74" id="icon-excel" xmlns="http://www.w3.org/2000/svg"><path d="M42.91 25.818H62M42.91 47.636H62M12.91 17.636V6.727A2.727 2.727 0 0115.635 4h43.637A2.727 2.727 0 0162 6.727v60a2.727 2.727 0 01-2.727 2.727H15.636a2.727 2.727 0 01-2.727-2.727V55.818M37.454 55.818v13.636M37.454 4v13.636" stroke="#E1E1EA" stroke-width="2.5" stroke-linecap="round" stroke-linejoin="round"/><path d="M40.182 17.636H4.727A2.727 2.727 0 002 20.364V53.09a2.727 2.727 0 002.727 2.727h35.455a2.727 2.727 0 002.727-2.727V20.364a2.727 2.727 0 00-2.727-2.728zM16.318 28.546l12.273 16.363M28.591 28.546L16.318 44.909" stroke="#E1E1EA" stroke-width="2.5" stroke-linecap="round" stroke-linejoin="round"/></svg><svg fill="none" viewBox="0 0 22 16" id="icon-eye" xmlns="http://www.w3.org/2000/svg"><path d="M1.55 9.406c-.272-.373-.408-.56-.502-.92a2.46 2.46 0 010-.971c.094-.361.23-.548.502-.92C3.039 4.55 6.303 1 11 1c4.697 0 7.961 3.55 9.45 5.594.272.373.408.56.502.92a2.46 2.46 0 010 .971c-.094.361-.23.548-.502.92C18.961 11.45 15.697 15 11 15c-4.697 0-7.961-3.55-9.45-5.594z" stroke="#9595A6" stroke-width="1.5" stroke-linecap="round" stroke-linejoin="round"/><path d="M11 10a2 2 0 100-4 2 2 0 000 4z" stroke="#9595A6" stroke-width="1.5" stroke-linecap="round" stroke-linejoin="round"/></svg><svg fill="none" viewBox="0 0 12 20" id="icon-ok" xmlns="http://www.w3.org/2000/svg"><path d="M5.91 0a5.183 5.183 0 100 10.365A5.183 5.183 0 005.91 0zm0 7.325a2.142 2.142 0 110-4.285 2.142 2.142 0 010 4.285zM7.74 14.49c2.075-.423 3.318-1.406 3.384-1.459a1.41 1.41 0 00-1.763-2.198c-.013.01-1.34 1.027-3.521 1.029-2.182-.002-3.536-1.019-3.55-1.03a1.41 1.41 0 00-1.762 2.2c.066.053 1.361 1.061 3.494 1.474l-2.973 3.107a1.41 1.41 0 102.03 1.956l2.76-2.942 3.041 2.96a1.41 1.41 0 101.992-1.994L7.74 14.49zM5.84 11.862c-.005 0 .006 0 0 0-.005 0 .006 0 0 0z" fill="#fff"/></svg><svg fill="none" viewBox="0 0 18 18" id="icon-search" xmlns="http://www.w3.org/2000/svg"><path d="M13.92 13.92L17 17m-.889-8.419c0 4.187-3.383 7.581-7.555 7.581C4.383 16.162 1 12.768 1 8.582 1 4.393 4.383 1 8.556 1c4.172 0 7.555 3.394 7.555 7.581z" stroke="#9595A6" stroke-width="1.5" stroke-linecap="round" stroke-linejoin="round"/></svg><svg fill="none" viewBox="0 0 64 68" id="icon-txt" xmlns="http://www.w3.org/2000/svg"><path d="M21.09 23.09H42.91M21.09 34H42.91M21.09 44.91H32M41.784 64H4.727A2.727 2.727 0 012 61.273V6.727A2.727 2.727 0 014.727 4h54.546A2.727 2.727 0 0162 6.727v37.057a2.695 2.695 0 01-.784 1.91L43.693 63.215a2.695 2.695 0 01-1.909.784z" stroke="#E1E1EA" stroke-width="2.5" stroke-linecap="round" stroke-linejoin="round"/><path d="M61.761 44.91H42.91V63.76" stroke="#E1E1EA" stroke-width="2.5" stroke-linecap="round" stroke-linejoin="round"/></svg><svg fill="none" viewBox="0 0 20 12" id="icon-vk" xmlns="http://www.w3.org/2000/svg"><path d="M10.893 11.818C4.06 11.818.163 7.382 0 0h3.423c.112 5.418 2.636 7.713 4.634 8.186V0h3.223v4.673c1.974-.201 4.048-2.33 4.747-4.673h3.223c-.537 2.887-2.785 5.016-4.384 5.891 1.599.71 4.16 2.567 5.134 5.927h-3.548c-.762-2.248-2.66-3.987-5.172-4.223v4.223h-.387z" fill="#fff"/></svg><svg fill="none" viewBox="0 0 64 74" id="icon-word" xmlns="http://www.w3.org/2000/svg"><path d="M12.91 17.636V6.727A2.727 2.727 0 0115.635 4h43.637A2.727 2.727 0 0162 6.727v60a2.727 2.727 0 01-2.727 2.727H15.636a2.727 2.727 0 01-2.727-2.727V55.818" stroke="#E1E1EA" stroke-width="2.5" stroke-linecap="round" stroke-linejoin="round"/><path d="M12.91 28.546L17 44.909l5.455-12.273 5.454 12.273L32 28.546" stroke="#E1E1EA" stroke-width="2.5" stroke-linecap="round" stroke-linejoin="round"/><path d="M40.182 17.636H4.727A2.727 2.727 0 002 20.364V53.09a2.727 2.727 0 002.727 2.727h35.455a2.727 2.727 0 002.727-2.727V20.364a2.727 2.727 0 00-2.727-2.728z" stroke="#E1E1EA" stroke-width="2.5" stroke-linecap="round" stroke-linejoin="round"/></svg></svg>